<?xml version="1.0" ?>
<!-- Uploaded to: SVG Repo, www.svgrepo.com, Generator: SVG Repo Mixer Tools -->
<svg width="800px" height="800px" viewBox="0 0 512 512" id="Layer_1" version="1.1" xml:space="preserve" xmlns="http://www.w3.org/2000/svg" xmlns:xlink="http://www.w3.org/1999/xlink">
<style type="text/css">
	.st0{fill:#2B79C2;}
	.st1{fill:#3B4652;}
	.st2{fill:#333333;}
</style>
<g>
<g>
<path class="st1" d="M41,287.5v49.5c0,15.5,12.6,28.1,28.1,28.1h240.7v-61.7c0-5.8,1.6-11.3,4.3-15.9H41z M202,336H78.2    c-4.4,0-8-3.6-8-8c0-4.4,3.6-8,8-8H202c4.4,0,8,3.6,8,8C210,332.5,206.4,336,202,336z M236.8,329.6c-0.1,0.5-0.3,1-0.5,1.5    s-0.5,1-0.7,1.4c-0.3,0.4-0.6,0.8-1,1.2c-0.4,0.4-0.8,0.7-1.2,1c-0.4,0.3-0.9,0.5-1.4,0.7c-0.5,0.2-1,0.4-1.5,0.5    c-0.5,0.1-1,0.2-1.6,0.2c-0.5,0-1.1-0.1-1.6-0.2c-0.5-0.1-1-0.3-1.5-0.5c-0.5-0.2-0.9-0.4-1.4-0.7c-0.4-0.3-0.8-0.6-1.2-1    c-0.4-0.4-0.7-0.8-1-1.2c-0.3-0.4-0.5-0.9-0.7-1.4c-0.2-0.5-0.4-1-0.5-1.5c-0.1-0.5-0.2-1-0.2-1.6s0.1-1.1,0.2-1.6s0.3-1,0.5-1.5    c0.2-0.5,0.4-0.9,0.7-1.4c0.3-0.4,0.6-0.8,1-1.2c0.4-0.4,0.8-0.7,1.2-1c0.4-0.3,0.9-0.5,1.4-0.7c0.5-0.2,1-0.4,1.5-0.5    c1-0.2,2.1-0.2,3.1,0c0.5,0.1,1,0.3,1.5,0.5c0.5,0.2,0.9,0.4,1.4,0.7c0.4,0.3,0.9,0.6,1.2,1c0.4,0.4,0.7,0.8,1,1.2    c0.3,0.4,0.5,0.9,0.7,1.4s0.3,1,0.5,1.5c0.1,0.5,0.1,1,0.1,1.6S236.9,329.1,236.8,329.6z"/>
<path class="st1" d="M418.1,99.5h-349c-15.5,0-28.1,12.6-28.1,28.1v104.7h285.6v-0.6c0-25.3,20.6-46,45.9-46h51.8    c7.9,0,15.4,2,21.9,5.6v-63.8C446.2,112.1,433.6,99.5,418.1,99.5z M189.6,184H82.7v-39.4h106.9V184z M257.1,184h-32.7v-39.4h32.7    V184z"/>
</g>
<path class="st0" d="M455,287.5h-0.8v-55.7c0-16.5-13.4-30-30-30h-51.8c-16.5,0-30,13.4-30,30v55.7h-0.8c-8.8,0-16,7.1-16,16v93   c0,8.8,7.1,16,16,16H455c8.8,0,16-7.1,16-16v-93C471,294.7,463.9,287.5,455,287.5z M358.6,231.8c0-7.7,6.3-14,14-14h51.8   c7.7,0,14,6.3,14,14v55.7h-79.7V231.8z M406.4,363.1v12.3c0,4.4-3.6,8-8,8s-8-3.6-8-8v-12.3c-8.2-3.2-14-11.1-14-20.4   c0-12.1,9.8-22,22-22s22,9.8,22,22C420.3,352,414.6,359.9,406.4,363.1z"/>
</g>
</svg>