<svg width="555" height="94" viewBox="0 0 555 94" fill="none" xmlns="http://www.w3.org/2000/svg">
<path d="M37.625 93.25C25.875 93.25 16.7083 90.125 10.125 83.875C3.625 77.5417 0.375 68.5 0.375 56.75C0.375 44.9583 3.39583 35.9167 9.4375 29.625C15.4792 23.1667 23.9583 19.9375 34.875 19.9375C45.7917 19.9375 54.1667 22.7292 60 28.3125C65.8333 33.8958 68.75 41.8958 68.75 52.3125V63.1875H25.0625C25.2292 67.1458 26.6667 70.25 29.375 72.5C32.125 74.75 35.7708 75.875 40.3125 75.875C44.8958 75.875 48.9375 75.4792 52.4375 74.6875C55.9375 73.8958 59.8333 72.5 64.125 70.5V88.0625C60.125 90.1042 56.125 91.4792 52.125 92.1875C48.125 92.8958 43.2917 93.25 37.625 93.25ZM46.5625 47.8125C46.4792 44.3958 45.5 41.6667 43.625 39.625C41.7917 37.5833 39.3333 36.5625 36.25 36.5625C33.2083 36.5625 30.75 37.5 28.875 39.375C27 41.25 25.8958 44.0625 25.5625 47.8125H46.5625ZM145.8 92H116.738L86.925 0.625H114.675L127.113 46.9375C129.696 57.3958 131.113 64.5625 131.363 68.4375C131.696 65.3125 132.3 61.5417 133.175 57.125C134.05 52.7083 134.8 49.3958 135.425 47.1875L148.05 0.625H175.738L145.8 92ZM281.538 92H254.538L249.975 74.875H220.35L215.725 92H188.6L218.413 0.25H251.35L281.538 92ZM244.913 54.625L240.975 39.625C238.267 30.0833 236.288 21.9792 235.038 15.3125C234.663 17.4375 233.913 20.9375 232.788 25.8125C231.788 30.5208 229.35 40.125 225.475 54.625H244.913ZM355.4 47.1875L386.587 92H358.025L340.212 63.4375L322.587 92H294.65L324.962 45.25L296.462 0.625H323.837L340.337 28.875L356.15 0.625H384.4L355.4 47.1875Z" fill="#1365A0"/>
<path d="M434.513 92H409.7V0.625H434.513V92ZM554.125 92H521.75L488.375 27.625H487.812C488.604 37.5 489 45.2292 489 50.8125V92H467.125V0.625H499.375L532.625 64.125H533C532.417 54.5833 532.125 47.1875 532.125 41.9375V0.625H554.125V92Z" fill="#2B2B2B"/>
</svg>
