<svg width="287" height="47" viewBox="0 0 287 47" fill="none" xmlns="http://www.w3.org/2000/svg">
<path d="M0.875 1H33.5312V9.09375H10.4375V19.6875H30.6562V27.6875H10.4375V47H0.875V1ZM49.0938 29.5938H60.7812L55.0312 11.4688L49.0938 29.5938ZM49.6875 0.9375H60.5625L76.875 47H66.4375L63.4688 37.5312H46.5L43.3125 47H33.25L49.6875 0.9375ZM92.375 8.9375V21.3125H103.281C105.448 21.3125 107.073 21.0625 108.156 20.5625C110.073 19.6875 111.031 17.9583 111.031 15.375C111.031 12.5833 110.104 10.7083 108.25 9.75C107.208 9.20833 105.646 8.9375 103.562 8.9375H92.375ZM105.562 0.9375C108.792 1 111.271 1.39583 113 2.125C114.75 2.85417 116.229 3.92708 117.438 5.34375C118.438 6.51042 119.229 7.80208 119.812 9.21875C120.396 10.6354 120.688 12.25 120.688 14.0625C120.688 16.25 120.135 18.4062 119.031 20.5312C117.927 22.6354 116.104 24.125 113.562 25C115.688 25.8542 117.188 27.0729 118.062 28.6562C118.958 30.2188 119.406 32.6146 119.406 35.8438V38.9375C119.406 41.0417 119.49 42.4688 119.656 43.2188C119.906 44.4062 120.49 45.2812 121.406 45.8438V47H110.812C110.521 45.9792 110.312 45.1562 110.188 44.5312C109.938 43.2396 109.802 41.9167 109.781 40.5625L109.719 36.2812C109.677 33.3438 109.135 31.3854 108.094 30.4062C107.073 29.4271 105.146 28.9375 102.312 28.9375H92.375V47H82.9688V0.9375H105.562Z" fill="white"/>
<path d="M155.969 0.9375H165.969L150.25 47H141.156L125.594 0.9375H135.875L145.875 35.9062L155.969 0.9375ZM180.5 47H170.938V0.9375H180.5V47ZM223.562 9.09375H199.188V18.875H221.562V26.875H199.188V38.7188H224.688V47H189.781V0.9375H223.562V9.09375ZM238.469 0.9375L244.562 27.3125L245.875 34.6562L247.219 27.4688L252.406 0.9375H262.562L268.031 27.3125L269.438 34.6562L270.844 27.5938L277 0.9375H286.781L273.812 47H264.625L259.062 20.0625L257.438 11.1562L255.812 20.0625L250.25 47H241.312L228.25 0.9375H238.469Z" fill="#222222"/>
</svg>
